<svg xmlns="http://www.w3.org/2000/svg" version="1.1" viewBox="-5.0 -10.0 110.0 135.0">
 <g>
  <path d="m22.609 38.281c2.8164-0.79688 5.7148-1.2578 8.6406-1.375 2.9258 0.11719 5.8242 0.57812 8.6406 1.375l0.57812 0.14062c0.84375 0.20312 3.125 0.5 3.3594 0.53125 2.5156 0.41016 5.0859-0.30469 7.0312-1.9531 1.8398-1.5547 2.9023-3.8398 2.9062-6.25v-3.125c-0.035156-4.1211-3.0742-7.6016-7.1562-8.1875l-6.5-1.0312c-5.8672-0.95312-11.852-0.95312-17.719 0l-6.5 1.0312c-4.082 0.58594-7.1211 4.0664-7.1562 8.1875v3.125c0.003906 2.4102 1.0664 4.6953 2.9062 6.25 1.5508 1.3164 3.5117 2.0469 5.5469 2.0625 0.46094 0.003906 0.92188-0.035156 1.375-0.10938 0.26562 0 2.5625-0.32812 3.4062-0.53125zm-1.3125-2.8906c-0.51562 0.125-2.1562 0.35938-3.125 0.46875-1.6172 0.26953-3.2734-0.18359-4.5312-1.2344-1.1406-0.95703-1.7969-2.3711-1.7969-3.8594v-3.125c0.042969-2.5781 1.9609-4.7383 4.5156-5.0938l6.5156-1.0469c5.5352-0.89453 11.184-0.89453 16.719 0l6.5156 1.0469c2.5547 0.35547 4.4727 2.5156 4.5156 5.0938v3.125c0 1.4883-0.65625 2.9023-1.7969 3.8594-1.2695 1.0664-2.9453 1.5195-4.5781 1.2344-0.90625-0.10938-2.5469-0.34375-3.125-0.46875l-0.5-0.14062c-3.0547-0.86719-6.2031-1.3594-9.375-1.4688-3.1719 0.10938-6.3203 0.60156-9.375 1.4688z"/>
  <path d="m10.109 63.953c-0.003906-1.6953 0.21484-3.3789 0.65625-5.0156 0.21094-0.41797 0.22266-0.91016 0.035156-1.3398-0.19141-0.42578-0.5625-0.74609-1.0156-0.87109s-0.93359-0.039062-1.3164 0.23047c-0.38281 0.27344-0.625 0.69922-0.65625 1.168-0.5 1.9023-0.75391 3.8594-0.75 5.8281 0.027344 7.0117 3.2617 13.629 8.7812 17.953 0.27344 0.21875 0.61719 0.33984 0.96875 0.34375 0.66797 0.003906 1.2695-0.41797 1.4883-1.0508 0.21875-0.63281 0.007813-1.3359-0.51953-1.7461-4.8008-3.7148-7.6289-9.4297-7.6719-15.5z"/>
  <path d="m96.875 60.938h-2.3438v-3.9062c0-1.4492-0.57422-2.8398-1.6016-3.8672-1.0273-1.0273-2.418-1.6016-3.8672-1.6016-0.92188 0.003906-1.8242 0.24609-2.625 0.70312-0.80078-2.5586-3.3438-4.1523-5.9961-3.7656-2.6523 0.39062-4.625 2.6484-4.6602 5.3281v7.1094h-13.438c-0.40625-3.9219-1.5938-7.7227-3.5-11.172-1.8594-4.5625-0.85938-7.5625 0.29688-11.031 0.97266-2.5469 1.5-5.2422 1.5625-7.9688v-3.125c-0.035156-3.6133-1.3633-7.0938-3.7461-9.8125-2.3828-2.7188-5.6602-4.4922-9.2383-5l-6.5-1.0469c-6.6367-1.0625-13.395-1.0625-20.031 0l-6.5 1.0469c-3.5781 0.50781-6.8555 2.2812-9.2383 5-2.3828 2.7188-3.7109 6.1992-3.7461 9.8125v3.125c0.0625 2.7266 0.58984 5.4219 1.5625 7.9688 1.1562 3.4688 2.1562 6.4688 0.3125 11.031-2.375 4.3516-3.6055 9.2305-3.5781 14.188 0.027344 9.6211 4.7188 18.629 12.578 24.172 0.89062 0.62891 1.957 0.95703 3.0469 0.9375h31.25c1.1172 0.035156 2.2148-0.29297 3.125-0.9375 5.9805-4.2891 10.168-10.629 11.766-17.812h14.062v7.0312c0.035156 2.6797 2.0078 4.9375 4.6602 5.3281 2.6523 0.38672 5.1953-1.207 5.9961-3.7656 0.77734 0.47656 1.668 0.74609 2.5781 0.78125 3.0195 0 5.4688-2.4492 5.4688-5.4688v-3.9062h2.3438c0.82812 0 1.625-0.32812 2.2109-0.91406 0.58594-0.58594 0.91406-1.3828 0.91406-2.2109v-3.125c0-0.82812-0.32812-1.625-0.91406-2.2109-0.58594-0.58594-1.3828-0.91406-2.2109-0.91406zm-21.094 6.25h-29.688v-3.125h29.688zm-40.625 7.0312c0 1.293-1.0508 2.3438-2.3438 2.3438s-2.3438-1.0508-2.3438-2.3438v-17.188c0-1.293 1.0508-2.3438 2.3438-2.3438s2.3438 1.0508 2.3438 2.3438zm-7.8125-7.0312h-2.3438v-3.125h2.3438zm10.938 7.0312v-20.312c0-1.293 1.0508-2.3438 2.3438-2.3438s2.3438 1.0508 2.3438 2.3438v23.438c0 1.293-1.0508 2.3438-2.3438 2.3438s-2.3438-1.0508-2.3438-2.3438zm9.8125 11.375c-0.35938 0.23828-0.78516 0.35938-1.2188 0.34375h-31.25c-0.41016 0.003906-0.8125-0.11719-1.1562-0.34375-5.3359-3.7031-9.1172-9.2422-10.617-15.562-1.5-6.3164-0.60937-12.969 2.4922-18.672 0.0625-0.082031 0.11328-0.17188 0.15625-0.26562 2.375-5.7188 1.0781-9.5938-0.17188-13.359-0.87891-2.2227-1.3711-4.5781-1.4531-6.9688v-3.125c0.089844-5.9297 4.4844-10.91 10.359-11.734l6.5-1.0469c6.3047-1 12.727-1 19.031 0l6.5 1.0469c5.875 0.82422 10.27 5.8047 10.359 11.734v3.125c-0.0625 2.3906-0.52734 4.75-1.375 6.9844-1.25 3.75-2.5469 7.625-0.17188 13.344l0.14062 0.26562c1.6016 2.9688 2.6016 6.2227 2.9375 9.5781h-13.062v-7.0312c-0.035156-2.6797-2.0078-4.9375-4.6602-5.3281-2.6523-0.38672-5.1953 1.207-5.9961 3.7656-0.79297-0.48438-1.6953-0.75391-2.625-0.78125-3.0195 0-5.4688 2.4492-5.4688 5.4688v3.9062h-2.3438c-1.7266 0-3.125 1.3984-3.125 3.125v3.125c0 0.82812 0.32812 1.625 0.91406 2.2109 0.58594 0.58594 1.3828 0.91406 2.2109 0.91406h2.3438v3.9062c0 3.0195 2.4492 5.4688 5.4688 5.4688 0.92188-0.003906 1.8242-0.24609 2.625-0.70312 0.80078 2.5586 3.3438 4.1523 5.9961 3.7656 2.6523-0.39062 4.625-2.6484 4.6602-5.3281v-7.1094h12.5c-1.5781 6.1758-5.3008 11.594-10.5 15.281zm35.5-8.25c0 1.293-1.0508 2.3438-2.3438 2.3438s-2.3438-1.0508-2.3438-2.3438v-23.438c0-1.293 1.0508-2.3438 2.3438-2.3438s2.3438 1.0508 2.3438 2.3438zm7.8125-3.125c0 1.293-1.0508 2.3438-2.3438 2.3438s-2.3438-1.0508-2.3438-2.3438v-17.188c0-1.293 1.0508-2.3438 2.3438-2.3438s2.3438 1.0508 2.3438 2.3438zm5.4688-7.0312h-2.3438v-3.125h2.3438z"/>
 </g>
<text x="0.0" y="117.5" font-size="5.0" font-weight="bold" font-family="Arbeit Regular, Helvetica, Arial-Unicode, Arial, Sans-serif" fill="#000000">Created by Hardini Dwi Lestari</text><text x="0.0" y="122.5" font-size="5.0" font-weight="bold" font-family="Arbeit Regular, Helvetica, Arial-Unicode, Arial, Sans-serif" fill="#000000">from Noun Project</text></svg>