<svg xmlns="http://www.w3.org/2000/svg" version="1.1" viewBox="-5.0 -10.0 110.0 135.0">
 <path d="m22.5 73.156c-2.3945 0-4.3438 1.9492-4.3438 4.3477 0 2.3984 1.9492 4.3438 4.3438 4.3438s4.3477-1.9492 4.3477-4.3438c0-2.3945-1.9492-4.3477-4.3477-4.3477zm0 6.7539c-1.3281 0-2.4062-1.0781-2.4062-2.4062s1.0781-2.4102 2.4062-2.4102 2.4102 1.082 2.4102 2.4102-1.082 2.4062-2.4102 2.4062zm66.535-14.91h-19.879l17.215-9.9414c0.22266-0.12891 0.38281-0.33984 0.44922-0.58984 0.066407-0.24609 0.03125-0.51172-0.097656-0.73438l-11.535-19.977c-0.26562-0.46484-0.85938-0.62109-1.3203-0.35547l-17.211 9.9375 9.9375-17.211c0.26562-0.46484 0.10938-1.0547-0.35547-1.3203l-19.977-11.535c-0.22266-0.12891-0.48828-0.16406-0.73438-0.097657-0.24609 0.066407-0.46094 0.23047-0.58984 0.44922l-9.9414 17.215 0.007812-19.871c0-0.53516-0.43359-0.96875-0.96875-0.96875h-23.066c-0.53516 0-0.96875 0.43359-0.96875 0.96875v66.535c0 6.8906 5.6055 12.5 12.5 12.5h0.003906 66.527c0.53516 0 0.96875-0.43359 0.96875-0.96875v-23.066c0-0.53516-0.43359-0.96875-0.96875-0.96875zm-15.035-29.434 10.566 18.301-50.977 29.434 5.4414-9.4219 1.4258 2.4648c0.17969 0.30859 0.50391 0.48438 0.83984 0.48438 0.16406 0 0.33203-0.042969 0.48438-0.12891l36.957-21.34c0.46484-0.26562 0.62109-0.85938 0.35547-1.3203l-7.9688-13.805c-0.12891-0.22266-0.33984-0.38281-0.58984-0.44922-0.24609-0.066406-0.51172-0.03125-0.73438 0.097656l-16.703 9.6445 1.6328-2.8242 19.273-11.129zm7.3008 34.93v14.008h-8.7305v-14.008zm-10.668 14.008h-8.7305v-14.008h8.7305zm-30.07-2.9961 8.7305-5.0391v8.0352h-8.7305zm10.668-6.1602 8.4062-4.8516h0.33203v14.008h-8.7344v-9.1562zm2.3672-37.707-12.129-7 4.3672-7.5625 12.129 7zm-13.094-5.3242 12.129 7-4.3672 7.5625-12.125-7.0039 4.3672-7.5625zm-5.5 21.465 6.957 4.0156-4.3633 7.5586-2.5938-1.4961v-10.082zm7.9258 2.3398-7.9258-4.5742v-9.7031l0.16406-0.28516 12.125 7.0039-4.3672 7.5625zm26.434 2.4102-7.0039-12.129 7.5625-4.3672 7.0039 12.129zm-8.6797-11.16 7.0039 12.129-7.5625 4.3672-7-12.129 7.5625-4.3672zm-9.5273 5.5 0.28906-0.16797 7 12.129-7.5586 4.3633-4.5781-7.9297 4.8477-8.3984zm-5.9648 10.332 4.0195 6.9609-7.5664 4.3672-1.5-2.5938 5.0469-8.7383zm0.94531-47.77 18.301 10.566-29.434 50.977v-10.883l2.4609 1.4219c0.15234 0.089844 0.32031 0.12891 0.48438 0.12891 0.33594 0 0.66016-0.17578 0.83984-0.48438l21.34-36.957c0.12891-0.22266 0.16406-0.48438 0.097656-0.73438-0.066406-0.24609-0.23047-0.46094-0.44922-0.58984l-13.805-7.9688c-0.46484-0.26562-1.0547-0.10938-1.3203 0.35547l-9.6445 16.699v-3.2578l11.133-19.277zm-34.199 62.066v-65.562h21.133v65.566c0 5.8242-4.7422 10.562-10.566 10.562-5.8281 0-10.562-4.7383-10.562-10.562zm76.129 10.562h-58.863l9.4219-5.4414v2.8477c0 0.53516 0.43359 0.96875 0.96875 0.96875h42.672c0.53516 0 0.96875-0.43359 0.96875-0.96875v-15.941c0-0.53516-0.43359-0.96875-0.96875-0.96875h-19.281l2.8164-1.625h22.262v21.133zm-56.625-27.656v-42.676c0-0.53516-0.43359-0.96875-0.96875-0.96875h-15.941c-0.53516 0-0.96875 0.43359-0.96875 0.96875v42.676c0 0.53516 0.43359 0.96875 0.96875 0.96875h15.941c0.53516 0 0.96875-0.43359 0.96875-0.96875zm-1.9336-41.707v8.7344h-14.008v-8.7344zm-14.008 19.402v-8.7305h14.008v8.7305zm14.008 1.9336v8.7344h-14.008v-8.7344zm-14.008 19.402v-8.7305h14.008v8.7305z"/>
<text x="0.0" y="117.5" font-size="5.0" font-weight="bold" font-family="Arbeit Regular, Helvetica, Arial-Unicode, Arial, Sans-serif" fill="#000000">Created by pojok_icon</text><text x="0.0" y="122.5" font-size="5.0" font-weight="bold" font-family="Arbeit Regular, Helvetica, Arial-Unicode, Arial, Sans-serif" fill="#000000">from Noun Project</text></svg>