<svg xmlns="http://www.w3.org/2000/svg" data-name="Layer 1" viewBox="0 0 32 40" x="0px" y="0px"><path d="M16,18.521l5.308-2.246v-6.508s-5.309-2.245-5.309-2.245l-5.308,2.245v6.508s5.309,2.246,5.309,2.246Zm-.539-1.398l-3.69-1.563v-4.622s3.69,1.564,3.69,1.564v4.621Zm1.078,0v-4.622l3.69-1.563v4.622s-3.69,1.563-3.69,1.563Zm2.846-6.998l-3.385,1.434-3.387-1.434,3.386-1.433,3.386,1.433Z"/><path d="M28.8,16.333c0-1.644-1.514-3.1-4.248-4.131V5.498c0-1.4-1.139-2.539-2.539-2.539H9.987c-1.4,0-2.539,1.139-2.539,2.539v6.704c-2.734,1.037-4.248,2.492-4.248,4.131s1.514,3.09,4.248,4.127v6.042c0,1.4,1.139,2.539,2.539,2.539h12.026c1.4,0,2.539-1.139,2.539-2.539v-6.042c2.734-1.032,4.248-2.486,4.248-4.127ZM9.987,4.037h12.026c.806,0,1.461,.655,1.461,1.461v14.202c-2.111,.686-4.742,1.065-7.472,1.065s-5.365-.379-7.476-1.065V5.498c0-.806,.655-1.461,1.461-1.461Zm-5.709,12.296c0-1.061,1.174-2.147,3.17-2.976v5.948c-1.995-.829-3.17-1.914-3.17-2.972Zm17.735,11.63H9.987c-.806,0-1.461-.655-1.461-1.461v-5.67c2.157,.652,4.776,1.011,7.476,1.011s5.316-.359,7.472-1.011v5.67c0,.806-.655,1.461-1.461,1.461Zm2.539-8.656v-5.951c1.995,.826,3.17,1.912,3.17,2.978s-1.174,2.148-3.17,2.974Z"/><circle cx="16" cy="25.287" r="1.335"/><text x="0" y="47" fill="#000000" font-size="5px" font-weight="bold" font-family="'Helvetica Neue', Helvetica, Arial-Unicode, Arial, Sans-serif">Created by IGraphics</text><text x="0" y="52" fill="#000000" font-size="5px" font-weight="bold" font-family="'Helvetica Neue', Helvetica, Arial-Unicode, Arial, Sans-serif">from the Noun Project</text></svg>