<svg xmlns="http://www.w3.org/2000/svg" xmlns:xlink="http://www.w3.org/1999/xlink" version="1.1" x="0px" y="0px" viewBox="0 0 66 82.5" style="enable-background:new 0 0 66 66;" xml:space="preserve"><path d="M64,26.25h-3.79l1.46-2.91c0.12-0.23,0.1-0.51-0.03-0.73c-0.14-0.22-0.38-0.36-0.64-0.36h-1.25V11  c0-0.41-0.34-0.75-0.75-0.75H41c-0.41,0-0.75,0.34-0.75,0.75v11.25H39c-0.26,0-0.5,0.13-0.64,0.36c-0.14,0.22-0.15,0.5-0.03,0.73  l1.46,2.91h-5.04V23c0-2.62-2.13-4.75-4.75-4.75H20c-2.62,0-4.75,2.13-4.75,4.75v3.25H2c-0.41,0-0.75,0.34-0.75,0.75v4  c0,0.41,0.34,0.75,0.75,0.75h1.25V55c0,0.41,0.34,0.75,0.75,0.75h4c0.41,0,0.75-0.34,0.75-0.75V31.75h6.5v4.5H15  c-1.52,0-2.75,1.23-2.75,2.75s1.23,2.75,2.75,2.75h7.25V45c0,0.41,0.34,0.75,0.75,0.75h1.25v2.53c-3.92,0.33-7,3.22-7,6.72  c0,0.41,0.34,0.75,0.75,0.75s0.75-0.34,0.75-0.75c0-2.68,2.41-4.9,5.5-5.21V55c0,0.41,0.34,0.75,0.75,0.75s0.75-0.34,0.75-0.75  v-5.21c3.09,0.31,5.5,2.53,5.5,5.21c0,0.41,0.34,0.75,0.75,0.75s0.75-0.34,0.75-0.75c0-3.5-3.08-6.39-7-6.72v-2.53H27  c0.41,0,0.75-0.34,0.75-0.75v-3.25H35c1.52,0,2.75-1.23,2.75-2.75s-1.23-2.75-2.75-2.75h-0.25v-4.5h6.5V39c0,0,0,0,0,0s0,0,0,0v8  c0,0,0,0,0,0s0,0,0,0v8c0,0.41,0.34,0.75,0.75,0.75h20c0.41,0,0.75-0.34,0.75-0.75v-8c0,0,0,0,0,0s0,0,0,0v-8c0,0,0,0,0,0s0,0,0,0  v-7.25H64c0.41,0,0.75-0.34,0.75-0.75v-4C64.75,26.59,64.41,26.25,64,26.25z M7.25,54.25h-2.5v-22.5h2.5V54.25z M42.75,38.25v-6.5  h18.5v6.5H42.75z M61.25,39.75v6.5h-18.5v-6.5H61.25z M61.25,54.25h-18.5v-6.5h18.5V54.25z M41.75,11.75h16.5v10.5h-16.5V11.75z   M40.21,23.75H41h18h0.79l-1.25,2.5H41.46L40.21,23.75z M2.75,30.25v-2.5h12.5v2.5H2.75z M13.75,39c0-0.69,0.56-1.25,1.25-1.25h0.25  v2.5H15C14.31,40.25,13.75,39.69,13.75,39z M16.75,23c0-1.79,1.46-3.25,3.25-3.25h10c1.79,0,3.25,1.46,3.25,3.25v17.25h-16.5V23z   M26.25,44.25h-2.5v-2.5h2.5V44.25z M35,37.75c0.69,0,1.25,0.56,1.25,1.25s-0.56,1.25-1.25,1.25h-0.25v-2.5H35z M63.25,30.25h-28.5  v-2.5H41h18h4.25V30.25z"/><path d="M52,34c-0.55,0-1,0.45-1,1s0.45,1,1,1c0.55,0,1-0.45,1-1S52.55,34,52,34z"/><path d="M52,44c0.55,0,1-0.45,1-1c0-0.55-0.45-1-1-1c-0.55,0-1,0.45-1,1C51,43.55,51.45,44,52,44z"/><path d="M52,52c0.55,0,1-0.45,1-1c0-0.55-0.45-1-1-1c-0.55,0-1,0.45-1,1C51,51.55,51.45,52,52,52z"/><text x="0" y="81" fill="#000000" font-size="5px" font-weight="bold" font-family="'Helvetica Neue', Helvetica, Arial-Unicode, Arial, Sans-serif">Created by Design Circle</text><text x="0" y="86" fill="#000000" font-size="5px" font-weight="bold" font-family="'Helvetica Neue', Helvetica, Arial-Unicode, Arial, Sans-serif">from the Noun Project</text></svg>