<svg xmlns="http://www.w3.org/2000/svg" viewBox="0 0 100 125" fill="none" x="0px" y="0px"><path fill-rule="evenodd" clip-rule="evenodd" d="M47.875 34H18.125L18.125 45.75H47.875V34ZM18.125 32C17.0204 32 16.125 32.8954 16.125 34V40.0074C16.0381 39.9264 15.9209 39.875 15.7854 39.875H14.9854H14.9193H14.9186H9.60497C9.45901 39.875 9.32033 39.9388 9.22534 40.0496L6.12037 43.6721C6.0427 43.7627 6 43.8781 6 43.9975V61.875C6 62.1511 6.22386 62.375 6.5 62.375H9.375V67C9.375 67.5523 9.82272 68 10.375 68H10.625C11.1773 68 11.625 67.5523 11.625 67V62.375H13.375C13.6511 62.375 13.875 62.1511 13.875 61.875V62.075C13.875 62.2407 14.0093 62.375 14.175 62.375H86.1375C86.3032 62.375 86.4375 62.2407 86.4375 62.075V61.875C86.4375 62.1511 86.6614 62.375 86.9375 62.375H88.125V67C88.125 67.5523 88.5727 68 89.125 68H89.375C89.9273 68 90.375 67.5523 90.375 67V62.375H93.8125C94.0886 62.375 94.3125 62.1511 94.3125 61.875V43.9975C94.3125 43.8813 94.2721 43.7689 94.1983 43.6794V43.625H94.1518L91.0872 40.0496C90.9922 39.9388 90.8535 39.875 90.7075 39.875H85.3939H85.3932H85.3271H84.5271C84.3916 39.875 84.2744 39.9264 84.1875 40.0074V34C84.1875 32.8954 83.2921 32 82.1875 32H52.4375C51.3329 32 50.4375 32.8954 50.4375 34V45.75C50.4375 46.1653 50.5641 46.5511 50.7808 46.8708C50.5704 47.0541 50.4375 47.324 50.4375 47.625V51.8125C50.4375 51.9694 50.4736 52.1179 50.538 52.25C50.4736 52.3822 50.4375 52.5306 50.4375 52.6875V59.6875C50.4375 59.8444 50.4736 59.9929 50.538 60.125H49.7745C49.8389 59.9929 49.875 59.8444 49.875 59.6875V52.6875C49.875 52.5306 49.8389 52.3822 49.7745 52.25C49.8389 52.1179 49.875 51.9694 49.875 51.8125V47.625C49.875 47.324 49.7421 47.0541 49.5317 46.8708C49.7484 46.5511 49.875 46.1653 49.875 45.75V34C49.875 32.8954 48.9796 32 47.875 32H18.125ZM92.1762 43.625L90.2476 41.375H86.3314L87.6335 43.4584C87.6674 43.5126 87.6985 43.5682 87.7269 43.625L92.1762 43.625ZM87.9375 45.125V60.875H92.8125V45.125L87.9375 45.125ZM84.1875 40.775V45.75C84.1875 46.0971 84.0991 46.4235 83.9436 46.708C84.1928 46.8165 84.3931 47.0246 84.4876 47.292L85.9667 51.4795C86.0831 51.8091 86.0166 52.1469 85.833 52.3999C85.8603 52.491 85.875 52.5875 85.875 52.6875V59.6875C85.875 59.8444 85.8389 59.9929 85.7745 60.125H86.1375C86.3032 60.125 86.4375 60.2593 86.4375 60.425V44.5184C86.4375 44.4247 86.4112 44.3329 86.3615 44.2534L84.5625 41.375L84.5621 41.3744L84.5271 41.3184L84.1875 40.775ZM15.7854 41.3184L16.125 40.775V45.75C16.125 46.0971 16.2134 46.4235 16.3689 46.708C16.1197 46.8165 15.9194 47.0246 15.8249 47.292L14.3459 51.4795C14.2294 51.8091 14.2959 52.1469 14.4795 52.3999C14.4522 52.491 14.4375 52.5875 14.4375 52.6875V59.6875C14.4375 59.8444 14.4736 59.9929 14.538 60.125H14.175C14.0093 60.125 13.875 60.2593 13.875 60.425V44.675L13.8831 44.6749L13.8806 44.4436C13.8908 44.3763 13.9147 44.3116 13.951 44.2534L15.75 41.375L15.7504 41.3744L15.7854 41.3184ZM13.9811 41.375L12.8492 43.1861L8.47157 43.2339L10.0649 41.375H13.9811ZM7.5 44.7446L12.375 44.6914V60.875H7.5V44.7446ZM82.1875 34H52.4375V45.75H82.1875V34ZM15.9956 51.3125L17.1215 48.125H48.375V51.3125H15.9956ZM83.191 48.125L84.3169 51.3125H51.9375V48.125H83.191ZM16.4375 58.6875V53.6875H47.875V58.6875H16.4375ZM52.4375 53.6875V58.6875H83.875V53.6875H52.4375ZM14.675 61.575V60.925H85.6375V61.575H14.675Z" fill="black"/><text x="0" y="115" fill="#000000" font-size="5px" font-weight="bold" font-family="'Helvetica Neue', Helvetica, Arial-Unicode, Arial, Sans-serif">Created by 구름구름 구르밍</text><text x="0" y="120" fill="#000000" font-size="5px" font-weight="bold" font-family="'Helvetica Neue', Helvetica, Arial-Unicode, Arial, Sans-serif">from the Noun Project</text></svg>