<svg xmlns="http://www.w3.org/2000/svg" version="1.1" viewBox="-5.0 -10.0 110.0 135.0">
 <path d="m85.922 28.203-0.17188-3.8672c-0.046875-1.125 0.085938-1.6367 0.089844-1.6562 0.011718-0.042969 0.019531-0.085938 0.019531-0.12891l1.6094-0.23047c0.24609-0.035156 0.42969-0.24609 0.42969-0.49609v-1.9258c0-0.26953-0.21484-0.49219-0.48438-0.5l-3.0234-0.082032c0.14844-1.2422 1.1992-10 1.2539-12.398 0.023438-1.0391-0.24219-1.8242-0.78125-2.3281-0.65234-0.60938-1.4414-0.55469-1.4727-0.55078-4.0625-0.074218-39.715-0.71094-41.098-0.48828-1.668 0.26562-2.1406 1.8281-2.1797 1.9844l-1.3281 12.777-19.766 1.3633h-0.015625-0.003906l-4.5195 0.28125c-0.10156 0.019531-2.4688 0.50391-2.8281 4.6875-0.32812 3.8125-4.2539 62.172-4.293 62.734-0.011719 0.089844-0.24609 2.1992 1.5117 2.9453 1.0078 0.42578 2.4219 0.5 3.293 0.5 0.44922 0 0.75391-0.019531 0.78906-0.023438 0.078125-0.003906 0.14453-0.03125 0.21094-0.066406 0.32422-0.011719 0.67188-0.066406 1.0508-0.17188 0.78125-0.22266 21.582-9.2344 24.039-10.309 0.082032-0.058594 2.0312-1.4453 2.0312-4.043 0-2.1992-1.1953-18.629-1.4023-21.488l23.844 1.8633c-1.0156 17.469-2.0625 36.141-2.0781 36.457-0.015626 0.11719-0.35938 2.9141 1.5078 3.7188 1.0391 0.44531 2.3203 0.5625 3.2852 0.5625 0.62891 0 1.1211-0.050781 1.3125-0.09375 0.48047-0.10938 10.949-6.7109 19.668-12.246 0.078125-0.054687 1.9258-1.4062 1.8086-4.7188-0.097657-2.6016-1.7617-39.828-2.3086-52.062zm-44.836-22.473c0.011718-0.042969 0.32422-1.0234 1.3594-1.1914 1.0391-0.15625 25.043 0.21484 40.977 0.5 0.007813 0.003907 0.42188-0.027343 0.75391 0.28516 0.32031 0.29688 0.47656 0.84375 0.46094 1.5742-0.054688 2.3984-1.1758 11.719-1.2578 12.406l-14.883 1.5273c-0.14062-0.007812-3.3594-0.17969-3.9492 6.2344-0.12109 1.3242-0.38281 5.3047-0.71094 10.695-3.1953-0.1875-22.633-1.3281-24.863-1.1875-0.40625 0.027343-0.76172 0.050781-1.0938 0.070312zm-7.2891 48.598 1.5781 21.238c0.046875 0.34375 0.058594 1.4141-0.47656 1.8516-0.75 0.54688-13.152 5.6602-21.762 9.1523l2.2266-33.684zm3.7109-23.746c-0.15234-2.6992-0.30859-5.6719-0.30859-6.6055 0-1.3984 0.0625-2.3945 0.09375-2.7891l1.2031-0.097656zm-0.70312 5.0391c0.007812 0.125 0.0625 0.23438 0.14453 0.32031l-0.082031 0.77344c-0.91016 0.0625-1.8555 0.16016-3.4453 0.39844-0.10156-1.875-0.47656-8.7344-0.52344-10.891-0.042969-1.9219-0.53516-3.7539-0.80078-4.6094l4.1758-0.34375c-0.035157 0.48047-0.082032 1.418-0.082032 2.707 0.007813 1.8633 0.58984 11.246 0.61328 11.645zm-5.7227-13.926c0.21094 0.64453 0.78125 2.5664 0.82422 4.5469 0.046875 2.2109 0.43359 9.293 0.53125 11.023-0.18359 0.03125-0.35156 0.054687-0.55078 0.089844l-1.1562 0.1875c-5.957 0.96484-11.672 1.9844-14.582 3.0156 0.17187-2.3477 0.96484-13.051 1.4453-15.551 0.46094-2.3906 2.2852-2.4023 2.4141-2.4023zm-0.19141 16.832 1.1562-0.1875c3.2461-0.53516 4.2695-0.59375 5.8203-0.6875 0.35547-0.023438 0.73828-0.042969 1.1797-0.074219 2.1289-0.15234 21.668 1.0039 24.73 1.1875-0.11328 1.8398-0.23047 3.8242-0.35547 5.9141-3.7344-0.41406-29.34-3.1523-46.223-2.6484-0.27734 0.007812-0.49219 0.23828-0.48438 0.51562 0.007812 0.27734 0.24219 0.48438 0.51562 0.48438 16.887-0.50391 42.578 2.2539 46.133 2.6484-0.074219 1.2773-0.15234 2.5859-0.23047 3.9219-4.2305-0.28516-40.125-2.6953-43.406-3.1055-3.1758-0.39844-4.7695-0.97266-4.9805-1.0508 0.078125-1.082 0.15234-2.1523 0.23047-3.1953 0.039063-0.019531 0.078126-0.039062 0.10938-0.070312 1.3477-1.3125 11.852-3.0117 15.805-3.6523zm-16.219 7.9414c0.65234 0.21875 2.25 0.67578 4.9297 1.0117 3.3555 0.41797 39.105 2.8203 43.469 3.1133-0.003906 0.074219-0.007812 0.14453-0.011718 0.21875l-48.461-3.2617c0.023438-0.36328 0.050782-0.72266 0.074219-1.082zm23.93-26.395-18.621 1.5273c-0.91406 0.019532-2.8672 0.62109-3.3672 3.2148-0.55078 2.8594-1.457 15.59-1.4922 16.133 0 0.011719 0.003906 0.019531 0.003906 0.027343-0.023438 0.011719-0.039062 0.019532-0.058594 0.03125 0.6875-9.4531 1.2695-16.809 1.4805-17.75 0.5625-2.4805 2.4219-2.5781 2.5195-2.582l19.613-1.3516zm-30.246 67.402c0.039062-0.58984 3.9688-58.938 4.293-62.742 0.28906-3.3711 1.9531-3.7734 1.9531-3.7812l2.0859-0.12891c-0.48047 0.51172-0.89453 1.2305-1.1172 2.2148-0.66016 2.9219-4.5781 62.812-4.7461 65.422 0.003906 0.097656 0.050781 0.76172 0.36719 1.3281-0.65625-0.046874-1.3789-0.15234-1.9297-0.38281-1.0625-0.45312-0.91797-1.8477-0.90625-1.9297zm30.926-11.266c0 1.9141-1.3203 3.0078-1.5664 3.1953-9.2227 4-23.129 9.9961-23.777 10.195-0.53906 0.15625-1.2695 0.26563-1.6953-0.074218-0.30469-0.24219-0.40625-0.90625-0.41797-1.0625 0.023437-0.33594 1.2148-18.559 2.4062-35.668l0.14453 0.011719-2.2812 34.488c-0.011719 0.17188 0.066406 0.33594 0.20703 0.4375 0.085938 0.0625 0.1875 0.09375 0.29297 0.09375 0.0625 0 0.125-0.011719 0.1875-0.035156 3.6406-1.4766 21.859-8.875 22.75-9.5977 1.0859-0.88281 0.85156-2.6914 0.84375-2.7383l-1.5664-21.051 3.0625 0.23828c0.16797 2.2852 1.4102 19.391 1.4102 21.566zm-24.875-24.402 0.33594-3.25 48.258 3.25c-0.074219 1.2461-0.14844 2.5117-0.22266 3.7812zm71.457 32.348c-7.4141 4.707-18.695 11.816-19.328 12.098-0.48047 0.10547-2.5938 0.1875-3.9883-0.41406-1.1562-0.49609-0.91406-2.6484-0.91016-2.7031 0.035156-0.60156 3.3633-60.059 3.9062-65.984 0.49219-5.3594 2.8594-5.3281 2.9648-5.3281l15.016-1.5391 3.3672 0.09375v1.0078l-14.586 2.0938c-0.22656 0.054687-2.2344 0.65234-2.5859 5.0703-0.32812 4.1406-4.0391 66.156-4.0742 66.781-0.015625 0.27734 0.19531 0.51172 0.46875 0.53125 0.29688 0.027344 0.51172-0.19531 0.53125-0.46875 0.003907-0.078125 0.066407-1.1211 0.17188-2.8945 0.003906 0 0.007813 0 0.011719-0.003906 2.5781-1.4297 15.477-8.6211 16.316-9.5742 0.94531-1.0742 0.89844-2.5469 0.89453-2.6133l-1.4258-28.871 2.9062-1.0156c0.26172-0.089844 0.39844-0.375 0.30469-0.63672-0.089844-0.26172-0.375-0.39844-0.63672-0.30859l-16.121 5.6445c0.074219-1.207 0.14453-2.4023 0.21875-3.5781l15.449-4.8594c0.22266-0.070313 0.36719-0.28906 0.34766-0.51953-0.019531-0.23437-0.20312-0.42187-0.43359-0.45312l-2.5234-0.32422c0.41016-0.26953 0.70312-0.53516 0.82031-0.78516 0.035157-0.074218 0.050782-0.15625 0.046876-0.23828l-0.21484-4.0469c0.019531-0.10547 0.007812-0.23047-0.046875-0.35547-0.066407-0.15234-0.17969-0.39453-0.95312-0.66016-0.039063-3.543-0.21094-13.703-0.86719-16.043l3.8984-0.55859c-0.046875 0.30859-0.10156 0.85156-0.066406 1.6797l0.17187 3.8672c0.54688 12.23 2.2109 49.453 2.3047 52.055 0.10547 2.75-1.3203 3.8281-1.3555 3.8555zm-5.9258-60.727c0.4375 0.78516 0.75391 8.5312 0.83984 15.602-0.74609-0.16016-1.7812-0.32422-3.2383-0.47656-4.1406-0.42969-6.5391-0.52734-7.4219-0.54688 0.30859-4.9805 0.53125-8.4961 0.60156-9.375 0.28906-3.6641 1.7969-4.168 1.7734-4.168l7.4297-1.0664c0.011719 0.015624 0.011719 0.023437 0.015625 0.03125zm2.0508 20.844c-0.75391 0.97266-6.7617 2.9609-12.527 4.4453 0.078124-1.2734 0.15234-2.5156 0.22656-3.7227l10.254-3.0391c0.26562-0.078125 0.41406-0.35547 0.33594-0.62109-0.078125-0.26563-0.35938-0.41797-0.62109-0.33594l-9.9023 2.9336c0.10547-1.7422 0.20703-3.3945 0.30078-4.9219 0.82812 0.019531 3.25 0.11328 7.3789 0.54297 3.1797 0.33203 4.1016 0.69141 4.3438 0.82812zm-1.3164 1.9414 1.5977 0.20312-12.914 4.0625c0.015625-0.23828 0.027343-0.47656 0.042969-0.71094 2.3828-0.60547 7.9922-2.1094 11.219-3.5742 0.019531 0.003907 0.035156 0.015626 0.054687 0.019532zm-11.66 9.9922 12.625-4.418 1.4102 28.57c0 0.011719 0.03125 1.1406-0.64453 1.9062-0.60547 0.65234-9.6055 5.7734-15.508 9.0586 0.41797-6.9531 1.3008-21.664 2.1172-35.117-0.003907 0-0.003907 0 0 0z"/>
<text x="0.0" y="117.5" font-size="5.0" font-weight="bold" font-family="Arbeit Regular, Helvetica, Arial-Unicode, Arial, Sans-serif" fill="#000000">Created by mac jam</text><text x="0.0" y="122.5" font-size="5.0" font-weight="bold" font-family="Arbeit Regular, Helvetica, Arial-Unicode, Arial, Sans-serif" fill="#000000">from Noun Project</text></svg>