<svg xmlns="http://www.w3.org/2000/svg" version="1.1" viewBox="-5.0 -10.0 110.0 135.0">
 <path d="m44.441 39.113 5.5547-9.6211 5.2422 9.082-4.7695 2.7539c-0.40234 0.23438-0.62891 0.6875-0.56641 1.1484 0.0625 0.46094 0.39453 0.84375 0.84375 0.96094l19.48 5.2188c0.10156 0.027344 0.19922 0.039062 0.30078 0.039062 0.50781 0 0.97266-0.33984 1.1133-0.85547l5.2188-19.48c0.12109-0.44922-0.042969-0.92969-0.41016-1.2109-0.36719-0.28516-0.875-0.31641-1.2773-0.085938l-4.7695 2.75-6.9492-12.035c-2.8555-4.9375-7.7578-7.7695-13.457-7.7695-5.6992 0-10.609 2.832-13.457 7.7695l-7.2617 12.582c-0.15234 0.26562-0.19531 0.57812-0.11328 0.875 0.078126 0.29688 0.27344 0.54688 0.53516 0.69922l13.168 7.5977c0.55078 0.31641 1.2539 0.12891 1.5742-0.42188zm5.5586-26.797c4.8555 0 9.0312 2.4102 11.461 6.6172l7.5234 13.035c0.31641 0.55078 1.0234 0.73828 1.5742 0.42188l3.3594-1.9375-4.2031 15.684-15.684-4.2031 3.3594-1.9414c0.55078-0.31641 0.73828-1.0234 0.42188-1.5742l-6.8164-11.809-3.7305-6.4609c-1.2773-2.2148-3.4766-3.4883-6.0352-3.4883h-0.015625c-0.38672 0-0.76172 0.03125-1.1289 0.089844 2.4727-2.8477 5.9688-4.4375 9.9141-4.4375zm-6.9766 24.648-11.176-6.4492 5.3242-9.2227 0.007813 0.003906c0.86719-1.5039 2.2969-2.3281 4.0312-2.3281h0.011718c1.7383 0 3.1719 0.82812 4.0391 2.3359l3.3984 5.8867-5.6445 9.7773zm37.559 10.48c-0.31641-0.55078-1.0234-0.73828-1.5742-0.42187l-13.168 7.6055c-0.26562 0.15234-0.45703 0.40234-0.53516 0.69922-0.078126 0.29688-0.039063 0.60938 0.11328 0.875l5.5547 9.6211h-10.488v-5.5117c0-0.46484-0.28125-0.88672-0.71094-1.0625-0.42969-0.17969-0.92578-0.078125-1.2539 0.25l-14.262 14.266c-0.44922 0.44922-0.44922 1.1797 0 1.6289l14.262 14.262c0.21875 0.21875 0.51562 0.33594 0.81641 0.33594 0.14844 0 0.29687-0.027344 0.44141-0.089844 0.42969-0.17969 0.71094-0.59766 0.71094-1.0625v-5.5117h13.902c5.7031 0 10.609-2.832 13.457-7.7695 2.8516-4.9336 2.8516-10.598 0-15.539l-7.2617-12.578zm-12.594 8.6016 11.176-6.4531 5.3242 9.2188-0.007812 0.003906c0.86719 1.5078 0.86719 3.1641-0.003907 4.6719-0.86719 1.5039-2.3047 2.3359-4.0391 2.3359h-6.8008l-5.6445-9.7773zm17.859 18.363c-2.4258 4.2031-6.6055 6.6172-11.461 6.6172h-15.055c-0.63672 0-1.1523 0.51562-1.1523 1.1523v3.8789l-11.48-11.48 11.48-11.484v3.8789c0 0.63672 0.51562 1.1523 1.1523 1.1523h21.098c2.5586 0 4.7578-1.2695 6.0352-3.4844 0.19531-0.33984 0.35938-0.68359 0.49219-1.0352 1.2305 3.5703 0.85938 7.3906-1.1133 10.801zm-45.719-8.5859h-11.109l5.2422-9.082 4.7734 2.7539c0.40234 0.23438 0.90625 0.19922 1.2773-0.085938s0.53125-0.76172 0.41016-1.2109l-5.2266-19.484c-0.16406-0.61328-0.79688-0.98047-1.4102-0.8125l-19.48 5.2188c-0.44922 0.12109-0.78125 0.5-0.84375 0.96094-0.0625 0.46094 0.16016 0.91406 0.56641 1.1484l4.7695 2.7539-6.9492 12.035c-2.8516 4.9414-2.8516 10.602 0 15.539 2.8477 4.9375 7.7539 7.7695 13.457 7.7695h14.523c0.63672 0 1.1523-0.51562 1.1523-1.1523v-15.203c0-0.63672-0.51562-1.1523-1.1523-1.1523zm-25.984 8.5859c-2.4297-4.2031-2.4258-9.0273 0-13.234l7.5234-13.035c0.31641-0.55078 0.12891-1.2539-0.42188-1.5742l-3.3594-1.9414 15.684-4.2031 4.207 15.688-3.3633-1.9414c-0.55078-0.31641-1.2539-0.12891-1.5742 0.42188l-6.8164 11.809-3.7305 6.4609c-1.2773 2.2148-1.2773 4.7578 0 6.9727 0.19531 0.33594 0.41016 0.64844 0.64453 0.94141-3.7031-0.71875-6.8281-2.9492-8.7969-6.3633zm24.832 6.6172h-10.645v-0.003906c-1.7383-0.003907-3.1758-0.83594-4.043-2.3398-0.86719-1.5078-0.86719-3.1641 0-4.6719l3.3984-5.8867h11.285v12.898z"/>
<text x="0.0" y="117.5" font-size="5.0" font-weight="bold" font-family="Arbeit Regular, Helvetica, Arial-Unicode, Arial, Sans-serif" fill="#000000">Created by Fitri Indra</text><text x="0.0" y="122.5" font-size="5.0" font-weight="bold" font-family="Arbeit Regular, Helvetica, Arial-Unicode, Arial, Sans-serif" fill="#000000">from Noun Project</text></svg>