<svg xmlns="http://www.w3.org/2000/svg" version="1.1" viewBox="-5.0 -10.0 110.0 135.0">
 <path d="m96.77 51.211c-0.20312-3.2305-2.625-6.0625-7.1719-8.3828v-0.20312-19.395c0-4.5469-3.6367-8.1836-8.1836-8.1836l-61.414 0.003906c-4.5469 0-8.1836 3.6367-8.1836 8.1836v19.191c-5.1523 2.4258-7.8789 5.3555-8.082 8.7891-1.4141 1.4141-2.2227 3.1328-2.2227 4.8477 0 4.1406 0.10156 7.8789 1.3125 11.414 0.10547 0.19922 0.20703 0.30078 0.30859 0.50391v4.1406c0 0.91016 0.30469 1.8164 0.80859 2.5234-0.50391 0.70703-0.80859 1.6172-0.80859 2.5234v4.4453c0 2.625 2.3242 4.8477 5.2539 4.8477l83.531 0.003906c2.9297 0 5.2539-2.2227 5.2539-4.8477v-3.9375c0-1.0117-0.30469-1.918-0.91016-2.7266 0.60547-0.80859 1.0117-1.7188 1.0117-2.8281v-4.0391c0.20312-0.10156 0.40234-0.30469 0.50391-0.60547 1.1094-3.6367 1.2109-7.6758 1.2109-11.414 0-1.8242-0.80469-3.4414-2.2188-4.8555zm-82.93-27.98c0-3.4336 2.7266-6.1602 6.1602-6.1602h61.414c3.4336 0 6.1602 2.7266 6.1602 6.1602v18.688c-1.7188-0.70703-3.6367-1.4141-5.7578-2.0195-0.60547-0.20313-1.1094-0.30469-1.7188-0.40234-0.70703-4.0391-0.20312-8.7891 1.7188-14.746 0.20312-0.70703 0-1.4141-0.40234-1.918-0.40234-0.50391-1.1094-0.80859-1.8164-0.70703-8.4844 1.7188-16.969 1.7188-25.555 0-0.70703-0.10156-1.5156 0.20312-1.918 0.80859-0.40234 0.50391-0.50391 1.2109-0.20312 1.8164 0.30469 1.1094 0.60547 2.1211 0.80859 3.2305h-3.0312c0.20312-1.1094 0.50391-2.2227 0.80859-3.2305 0.20313-0.60547 0.10156-1.2109-0.20312-1.8164-0.40234-0.60547-1.2109-0.91016-2.0195-0.80859-8.4844 1.7188-16.969 1.7188-25.555 0-0.70703-0.10156-1.3125 0.20312-1.8164 0.70703-0.50391 0.50391-0.60547 1.2109-0.40234 1.918 1.8164 5.7578 2.3242 10.402 1.7188 14.344-1.1094 0.30469-2.2227 0.50391-3.332 0.80859-1.8164 0.50391-3.8398 1.2109-5.2539 1.8164zm33.637 4.6484c-2.4258-0.10156-4.9492-0.40234-7.375-0.91016-0.60547-0.10156-1.2109 0.10156-1.7188 0.50391-0.40234 0.40234-0.60547 1.0117-0.50391 1.5156v0.10156c0.80859 2.3242 1.1094 4.8477 1.0117 7.4766-5.3555 0.40234-10.305 1.0117-14.848 1.918 0.50391-4.1406-0.10156-8.8906-1.918-14.547 8.6875 1.7188 17.477 1.7188 26.16 0.10156-0.30469 1.2148-0.60938 2.5273-0.80859 3.8398zm-7.4766 1.1094c7.0703 1.2109 14.242 1.2109 21.312 0-1.0117 2.7266-1.5156 5.2539-1.6172 7.5742-3.0312-0.20312-6.2617-0.30469-9.4961-0.30469-3.1328 0-6.2617 0.10156-9.293 0.30469 0.10547-2.625-0.19922-5.1484-0.90625-7.5742zm23.031-1.5117c-0.50391-0.50391-1.2109-0.70703-1.8164-0.50391-2.2227 0.40234-4.4453 0.70703-6.668 0.80859-0.20312-1.2109-0.50391-2.4258-0.80859-3.6367 8.6875 1.7188 17.477 1.7188 26.16 0-1.8164 5.8594-2.4258 10.707-1.918 14.848-4.8477-1.0117-10.305-1.8164-16.262-2.2227 0.10156-2.2227 0.60547-4.7461 1.6172-7.4766 0.30078-0.60547 0.097656-1.3125-0.30469-1.8164zm-12.727 10.906c11.816 0 22.828 1.2109 31.012 3.5352 6.7695 1.918 11.211 4.3438 12.828 7.1719-8.3828-5.1523-26.16-7.5742-43.84-7.5742-17.676 0-35.355 2.4258-43.738 7.5742 3.2305-5.6562 18.18-10.707 43.738-10.707zm0 5.1523c12.426 0 23.938 1.2109 32.523 3.332 9.0898 2.3242 14.141 5.5547 14.141 9.1914 0 1.8164 0 3.6367-0.20312 5.3555-1.4141-3.6367-5.4531-6.4648-10-6.4648h-73.23c-2.9297 0-5.9609 1.2109-7.9805 3.2305-0.91016 0.91016-1.5156 1.918-1.918 2.9297-0.10156-1.6172-0.10156-3.332-0.10156-5.1523 0-7.0664 20.102-12.422 46.77-12.422zm-45.152 28.586v-7.9805c0-2.0195 1.0117-3.5352 1.918-4.4453 1.6172-1.6172 4.0391-2.625 6.4648-2.625h73.23c4.5469 0 8.4844 3.332 8.4844 7.1719v7.9805c0 1.5156-1.4141 2.8281-3.2305 2.8281h-83.637c-1.8164-0.10156-3.2305-1.4141-3.2305-2.9297zm90 9.4961c0 1.5156-1.4141 2.8281-3.2305 2.8281h-83.539c-1.8164 0-3.2305-1.3125-3.2305-2.8281v-4.4453c0-0.40234 0.10156-0.70703 0.20312-1.1094 0.80859 0.50391 1.918 0.91016 3.0312 0.91016h83.637c1.0117 0 1.918-0.30469 2.7266-0.70703 0.20312 0.40234 0.40234 0.91016 0.40234 1.4141v3.9375z"/>
<text x="0.0" y="117.5" font-size="5.0" font-weight="bold" font-family="Arbeit Regular, Helvetica, Arial-Unicode, Arial, Sans-serif" fill="#000000">Created by Michael Appleford</text><text x="0.0" y="122.5" font-size="5.0" font-weight="bold" font-family="Arbeit Regular, Helvetica, Arial-Unicode, Arial, Sans-serif" fill="#000000">from Noun Project</text></svg>