<svg width="51" height="53" viewBox="0 0 51 53" fill="none" xmlns="http://www.w3.org/2000/svg">
<g id="Clip path group">
<mask id="mask0_7_8264" style="mask-type:luminance" maskUnits="userSpaceOnUse" x="0" y="0" width="51" height="53">
<g id="clippath679">
<path id="Vector" d="M0.791016 52.1855H50.8361V0.0976562H0.791016V52.1855Z" fill="white"/>
</g>
</mask>
<g mask="url(#mask0_7_8264)">
<g id="Group">
<path id="Vector_2" fill-rule="evenodd" clip-rule="evenodd" d="M15.0685 24.2004L5.56623 40.6553C5.45232 40.8532 5.47112 41.0998 5.61379 41.2778C5.75646 41.4558 5.99423 41.5277 6.211 41.4591L14.2213 38.9359L16.0406 47.1335C16.0904 47.3558 16.2707 47.5249 16.4963 47.5592C16.7219 47.5946 16.9453 47.4873 17.0592 47.2894L26.473 30.9882C26.8501 31.017 27.2283 31.0314 27.611 31.0314C27.9892 31.0314 28.3641 31.017 28.7346 30.9893L38.1628 47.3148C38.2767 47.5128 38.5001 47.62 38.7257 47.5846C38.9513 47.5504 39.1316 47.3812 39.1814 47.1578L41.0007 38.9614L49.011 41.4845C49.2278 41.5531 49.4655 41.4812 49.6082 41.3032C49.7509 41.1252 49.7697 40.8786 49.6558 40.6807L40.1458 24.2126C41.6609 21.8762 42.5412 19.0921 42.5412 16.1045C42.5412 7.86605 35.8514 1.17773 27.611 1.17773C19.3706 1.17773 12.6808 7.86605 12.6808 16.1045C12.6808 19.0877 13.5578 21.8674 15.0685 24.2004ZM39.4424 25.2055C37.1586 28.1665 33.7899 30.2485 29.9324 30.8511L38.4094 45.5314L40.0518 38.1332C40.0849 37.9817 40.18 37.8512 40.315 37.7738C40.4488 37.6965 40.6092 37.6788 40.7574 37.7252L47.9869 40.0029L39.4424 25.2055ZM15.7719 25.1944L7.2351 39.9775L14.4647 37.6998C14.6128 37.6533 14.7732 37.671 14.907 37.7484C15.042 37.8258 15.1371 37.9563 15.1702 38.1078L16.8126 45.5059L25.2764 30.8489C21.4199 30.243 18.0523 28.1588 15.7719 25.1944ZM27.611 2.28342C35.2409 2.28342 41.4353 8.47639 41.4353 16.1045C41.4353 23.7327 35.2409 29.9257 27.611 29.9257C19.9811 29.9257 13.7867 23.7327 13.7867 16.1045C13.7867 8.47639 19.9811 2.28342 27.611 2.28342ZM27.611 5.04765C21.5073 5.04765 16.5516 10.0022 16.5516 16.1045C16.5516 22.2068 21.5073 27.1614 27.611 27.1614C33.7147 27.1614 38.6704 22.2068 38.6704 16.1045C38.6704 10.0022 33.7147 5.04765 27.611 5.04765ZM27.611 6.15334C33.1042 6.15334 37.5645 10.6126 37.5645 16.1045C37.5645 21.5965 33.1042 26.0558 27.611 26.0558C22.1178 26.0558 17.6575 21.5965 17.6575 16.1045C17.6575 10.6126 22.1178 6.15334 27.611 6.15334ZM33.1927 11.9626C33.1208 11.8344 33.0003 11.7404 32.8587 11.7017C32.7171 11.6619 32.5656 11.6807 32.4384 11.7537L25.471 15.7065L23.9415 13.0705C23.8674 12.9434 23.7446 12.8505 23.602 12.8129C23.4582 12.7764 23.3067 12.7974 23.1795 12.8737L20.6911 14.362C20.4323 14.5179 20.345 14.8529 20.4965 15.1138L23.7977 20.8048C23.9492 21.0658 24.2821 21.1564 24.5453 21.0094L34.5165 15.44C34.6448 15.3682 34.7388 15.2487 34.7786 15.1072C34.8184 14.9657 34.8007 14.8142 34.7289 14.6859L33.1927 11.9626ZM32.5015 12.9887L33.4924 14.7457L24.4812 19.7788L21.7274 15.0309L23.2658 14.111L24.7886 16.7348C24.9413 16.9979 25.2764 17.0886 25.5396 16.9382L32.5015 12.9887Z" fill="black"/>
</g>
</g>
</g>
</svg>
