<svg xmlns="http://www.w3.org/2000/svg" xmlns:xlink="http://www.w3.org/1999/xlink" version="1.1" x="0px" y="0px" viewBox="0 0 503.997 629.9975" style="enable-background:new 0 0 503.997 503.998;" xml:space="preserve"><path d="M4,503.998h495.997c2.209,0,4-1.791,4-4V4c0-2.209-1.791-4-4-4H4C1.791,0,0,1.791,0,4v495.998  C0,502.207,1.791,503.998,4,503.998z M188.062,193.719v181.875l-50.912,33.09V238.475c0-1.509-0.849-2.889-2.195-3.57  l-82.893-41.916c-1.239-0.626-2.716-0.566-3.9,0.163c-1.184,0.728-1.905,2.018-1.905,3.407v271.203L8,492.628V13.657  L188.062,193.719z M278.319,312.507l-14.315,19.554h-67.942v-19.554H278.319z M353.676,296.811h-48.133  c-4.383,0-7.949-3.566-7.949-7.949v-13.934c0-4.383,3.566-7.949,7.949-7.949h40.183c4.383,0,7.95,3.566,7.95,7.949V296.811z   M361.676,274.928c0-4.383,3.566-7.949,7.949-7.949h40.184c4.383,0,7.949,3.566,7.949,7.949v13.934c0,4.383-3.566,7.949-7.949,7.949  h-48.133V274.928z M410.965,259.038c-0.383-0.028-0.766-0.059-1.156-0.059h-40.184c-4.752,0-9.025,2.089-11.949,5.396  c-2.925-3.308-7.198-5.396-11.95-5.396h-40.183c-0.39,0-0.773,0.031-1.156,0.059v-1.615c0-10.44,8.494-18.934,18.934-18.934h68.71  c10.44,0,18.934,8.494,18.934,18.934V259.038z M301.377,304.811h112.598c4.702,0,9.167,2.265,11.944,6.06l29.583,40.409  c1.716,2.344,2.867,4.986,3.435,7.778H256.414c0.568-2.792,1.719-5.434,3.435-7.778l29.584-40.41  C292.21,307.076,296.675,304.811,301.377,304.811z M495.997,373.765h-28.644v-10.707c0-5.977-1.866-11.685-5.396-16.505  l-4.754-6.493h38.793V373.765z M255.999,367.058h203.355v17.918c0,10.996-8.946,19.941-19.941,19.941H275.94  c-10.996,0-19.941-8.945-19.941-19.941V367.058z M196.062,340.061h62.085l-4.753,6.492c-3.53,4.821-5.396,10.528-5.396,16.505  v10.707h-51.937V340.061z M227.361,381.765h20.637v3.211c0,15.407,12.535,27.941,27.941,27.941h163.472  c15.407,0,27.941-12.534,27.941-27.941v-3.211h28.644v49.323c-25.223,19.539-79.125,32.1-138.321,32.1  c-41.239,0-79.951-5.95-109.003-16.753c-27.405-10.191-43.123-23.787-43.123-37.304C205.55,397.286,217.196,387.794,227.361,381.765  z M451.347,332.06l-14.315-19.553h58.965v19.553H451.347z M495.997,304.507h-64.956c-2.356-2.657-5.292-4.709-8.542-6.023  c2.036-2.678,3.259-6.006,3.259-9.622v-13.934c0-5.387-2.692-10.149-6.793-13.038v-4.467c0-14.852-12.083-26.934-26.934-26.934  h-68.71c-14.851,0-26.934,12.083-26.934,26.934v4.467c-4.101,2.889-6.793,7.651-6.793,13.038v13.934  c0,3.616,1.224,6.944,3.259,9.622c-3.251,1.314-6.187,3.367-8.543,6.024h-36.895v-21.896h20.1c1.236,0,2.402-0.571,3.16-1.547  c0.758-0.977,1.022-2.248,0.715-3.444l-9.731-38.035c-0.453-1.77-2.048-3.008-3.875-3.008h-28.736c-1.827,0-3.422,1.238-3.875,3.008  l-9.731,38.035c-0.307,1.196-0.042,2.468,0.715,3.444c0.758,0.976,1.924,1.547,3.16,1.547h20.1v21.896h-43.354V196.062h299.935  V304.507z M224.468,274.612l7.685-30.035h22.525l7.685,30.035H224.468z M129.15,413.885l-74.893,48.677V203.064l74.893,37.87  V413.885z M17.494,495.998l175.754-114.232h20.059c-10.344,8.365-15.756,17.679-15.756,27.366  c0,34.798,70.336,62.057,160.126,62.057c57.311,0,110.148-11.733,138.321-30.289v55.099H17.494z M495.997,188.062H193.719L13.657,8  h482.34V188.062z M102.023,355.25v-44.01c0-2.209,1.791-4,4-4s4,1.791,4,4v44.01c0,2.209-1.791,4-4,4  S102.023,357.459,102.023,355.25z M357.676,166.413c40.7,0,81.901-8.612,81.901-25.072v-35.574  c0-13.683-28.471-21.941-61.457-24.339v-22.96c0-11.273-9.171-20.445-20.444-20.445c-11.273,0-20.445,9.171-20.445,20.445v22.961  c-32.986,2.398-61.457,10.656-61.457,24.339v35.574C275.775,157.801,316.977,166.413,357.676,166.413z M345.231,58.468  c0-6.862,5.583-12.445,12.445-12.445c6.862,0,12.444,5.583,12.444,12.445v22.498c-4.124-0.179-8.286-0.27-12.444-0.27  c-4.158,0-8.321,0.091-12.445,0.27V58.468z M357.676,88.696c48.52,0,73.901,11.114,73.901,17.072v24.095  c-13.939-8.961-44.054-13.593-73.901-13.593c-29.847,0-59.962,4.632-73.901,13.593v-24.095  C283.775,99.81,309.156,88.696,357.676,88.696z M357.676,124.27c48.52,0,73.901,11.114,73.901,17.072s-25.381,17.072-73.901,17.072  c-48.52,0-73.901-11.114-73.901-17.072S309.156,124.27,357.676,124.27z"/><text x="0" y="518.998" fill="#000000" font-size="5px" font-weight="bold" font-family="'Helvetica Neue', Helvetica, Arial-Unicode, Arial, Sans-serif">Created by Amethyst Studio</text><text x="0" y="523.998" fill="#000000" font-size="5px" font-weight="bold" font-family="'Helvetica Neue', Helvetica, Arial-Unicode, Arial, Sans-serif">from the Noun Project</text></svg>