<svg width="49" height="47" viewBox="0 0 49 47" fill="none" xmlns="http://www.w3.org/2000/svg">
<g id="Clip path group">
<mask id="mask0_7_8258" style="mask-type:luminance" maskUnits="userSpaceOnUse" x="0" y="0" width="49" height="47">
<g id="clippath678">
<path id="Vector" d="M0.259766 46.9727H48.1548V0.0966797H0.259766V46.9727Z" fill="white"/>
</g>
</mask>
<g mask="url(#mask0_7_8258)">
<g id="Group">
<path id="Vector_2" d="M24.1191 8.54084C25.8421 8.54084 27.4011 9.25184 28.5301 10.4048C29.6581 11.5568 30.3561 13.1458 30.3561 14.9018C30.3561 16.6578 29.6581 18.2478 28.5301 19.3998C27.4001 20.5518 25.8401 21.2628 24.1191 21.2628C22.3961 21.2628 20.8371 20.5518 19.7081 19.3998C18.5791 18.2478 17.8821 16.6578 17.8821 14.9018C17.8821 13.1458 18.5801 11.5568 19.7081 10.4048C20.8381 9.25184 22.3961 8.54084 24.1191 8.54084ZM39.3221 33.3628H42.4721L42.3221 26.6498L24.6861 26.6308L24.6201 33.3628H27.9301C28.2561 33.3628 28.5521 33.4978 28.7651 33.7168C28.7741 33.7278 28.7841 33.7368 28.7931 33.7478C28.9891 33.9648 29.1121 34.2518 29.1121 34.5688V42.1338C29.1121 42.4668 28.9781 42.7678 28.7631 42.9858C28.5481 43.2048 28.2521 43.3398 27.9281 43.3398H20.5071C20.1831 43.3398 19.8891 43.2048 19.6741 42.9858L19.6721 42.9838L19.6701 42.9858C19.4551 42.7678 19.3221 42.4648 19.3221 42.1338V34.5688C19.3221 34.2368 19.4551 33.9368 19.6701 33.7188L19.6721 33.7168C19.8871 33.4978 20.1811 33.3628 20.5061 33.3628H23.7101L23.7751 26.6308L6.02007 26.6128L5.95707 33.3628H9.10307C9.42907 33.3628 9.72507 33.4978 9.93807 33.7168C9.94707 33.7278 9.95707 33.7368 9.96607 33.7478C10.1621 33.9648 10.2841 34.2518 10.2841 34.5688V42.1338C10.2841 42.4668 10.1531 42.7678 9.93807 42.9858C9.72307 43.2048 9.42707 43.3398 9.10307 43.3398H1.68207C1.35607 43.3398 1.06407 43.2048 0.847071 42.9858V42.9838L0.84507 42.9858C0.63007 42.7678 0.49707 42.4648 0.49707 42.1338V34.5688C0.49707 34.2368 0.63007 33.9368 0.84507 33.7188L0.847071 33.7168C1.06207 33.4978 1.35607 33.3628 1.68207 33.3628H5.05407L5.11807 26.1458C5.12007 25.8918 5.32207 25.6878 5.57007 25.6878C11.6411 25.6878 17.7141 25.6938 23.7851 25.7008L23.8201 22.1458C23.8221 21.8928 24.0251 21.6868 24.2761 21.6888C24.5261 21.6908 24.7281 21.8998 24.7241 22.1538L24.6891 25.7028C30.7121 25.7118 36.7341 25.7218 42.7581 25.7278C43.0051 25.7278 43.2071 25.9288 43.2101 26.1788L43.3711 33.3608H46.7351C47.0611 33.3608 47.3581 33.4968 47.5711 33.7148C47.5821 33.7258 47.5911 33.7348 47.5981 33.7468C47.7951 33.9628 47.9171 34.2498 47.9171 34.5668V42.1318C47.9171 42.4648 47.7841 42.7658 47.5691 42.9838C47.3541 43.2028 47.0591 43.3378 46.7331 43.3378H39.3131C38.9891 43.3378 38.6941 43.2028 38.4801 42.9838L38.4781 42.9818L38.4761 42.9838C38.2611 42.7658 38.1281 42.4638 38.1281 42.1318V34.5668C38.1281 34.2348 38.2611 33.9358 38.4761 33.7168L38.4781 33.7148C38.6931 33.4968 38.9871 33.3608 39.3111 33.3608L39.3221 33.3628ZM46.7421 34.2888H39.3221C39.2461 34.2888 39.1771 34.3208 39.1271 34.3708C39.0771 34.4208 39.0471 34.4928 39.0471 34.5688V42.1338C39.0471 42.2098 39.0791 42.2798 39.1291 42.3298L39.1271 42.3318C39.1771 42.3818 39.2461 42.4138 39.3221 42.4138H46.7421C46.8181 42.4138 46.8851 42.3818 46.9371 42.3298C46.9861 42.2798 47.0161 42.2098 47.0161 42.1338V34.5688C47.0161 34.4988 46.9901 34.4338 46.9491 34.3848L46.9371 34.3708C46.8861 34.3208 46.8181 34.2868 46.7421 34.2868V34.2888ZM27.9311 34.2888H20.5111C20.4351 34.2888 20.3661 34.3208 20.3161 34.3708C20.2661 34.4208 20.2371 34.4928 20.2371 34.5688V42.1338C20.2371 42.2098 20.2681 42.2798 20.3161 42.3298V42.3318C20.3661 42.3818 20.4351 42.4138 20.5111 42.4138H27.9311C28.0071 42.4138 28.0741 42.3818 28.1241 42.3298C28.1741 42.2798 28.2051 42.2098 28.2051 42.1338V34.5688C28.2051 34.4988 28.1791 34.4338 28.1391 34.3848L28.1241 34.3708C28.0741 34.3208 28.0071 34.2868 27.9311 34.2868V34.2888ZM9.10807 34.2888H1.68707C1.61107 34.2888 1.54307 34.3208 1.49307 34.3708C1.44407 34.4208 1.41307 34.4928 1.41307 34.5688V42.1338C1.41307 42.2098 1.44407 42.2798 1.49307 42.3298L1.49107 42.3318C1.54107 42.3818 1.60907 42.4138 1.68507 42.4138H9.10607C9.18007 42.4138 9.24807 42.3818 9.29807 42.3298C9.34807 42.2798 9.38007 42.2098 9.38007 42.1338V34.5688C9.38007 34.4988 9.35407 34.4338 9.31307 34.3848L9.29807 34.3708C9.24807 34.3208 9.18007 34.2868 9.10607 34.2868L9.10807 34.2888ZM24.0121 12.4028L23.9771 12.4048C23.9641 12.4048 23.9511 12.4028 23.9381 12.4028L23.8931 12.4048C23.5711 12.4158 23.2971 12.5028 23.1121 12.6648C22.9471 12.8078 22.8471 13.0218 22.8451 13.3078V13.3608C22.8561 13.6798 22.9911 13.9208 23.2321 14.1088C23.5211 14.3348 23.9541 14.5038 24.4971 14.6378C25.3531 14.7818 25.8901 15.2358 26.1381 15.7838C26.2661 16.0658 26.3141 16.3658 26.2921 16.6638C26.2681 16.9568 26.1741 17.2478 26.0111 17.5088C25.7201 17.9738 25.2181 18.3378 24.5301 18.4458L24.5471 19.4688C24.5491 19.7238 24.3491 19.9318 24.0991 19.9358C23.8511 19.9388 23.6451 19.7328 23.6411 19.4788L23.6251 18.4178C23.3511 18.3608 23.0521 18.2528 22.7861 18.0828C22.4261 17.8528 22.1241 17.5108 21.9981 17.0208C21.9351 16.7748 22.0821 16.5228 22.3241 16.4578C22.5651 16.3938 22.8131 16.5418 22.8761 16.7878C22.9341 17.0178 23.0881 17.1828 23.2711 17.2988C23.5691 17.4898 23.9301 17.5568 24.1551 17.5528H24.1561C24.6901 17.5398 25.0601 17.3138 25.2471 17.0118C25.3291 16.8828 25.3771 16.7358 25.3881 16.5898C25.3991 16.4448 25.3771 16.3008 25.3161 16.1688C25.1841 15.8778 24.8701 15.6338 24.3431 15.5468V15.5448L24.3121 15.5398C23.6381 15.3748 23.0841 15.1538 22.6801 14.8368C22.2231 14.4778 21.9611 14.0108 21.9431 13.3868C21.9411 13.3608 21.9411 13.3328 21.9411 13.3018C21.9451 12.7218 22.1631 12.2718 22.5261 11.9568C22.7931 11.7258 23.1361 11.5778 23.5231 11.5148V10.3358C23.5231 10.0808 23.7271 9.87284 23.9771 9.87284C24.2291 9.87284 24.4311 10.0808 24.4311 10.3358V11.5128C24.7711 11.5608 25.0471 11.6658 25.2881 11.8498C25.6251 12.1048 25.8531 12.4808 26.0371 13.0198C26.1161 13.2628 25.9901 13.5258 25.7531 13.6068C25.5161 13.6908 25.2591 13.5618 25.1771 13.3198C25.0551 12.9578 24.9231 12.7218 24.7491 12.5888C24.5821 12.4648 24.3471 12.4078 24.0121 12.4028ZM34.2351 10.9938V10.9958C34.3331 11.3008 34.5431 11.5388 34.8041 11.6738C35.0651 11.8088 35.3761 11.8418 35.6761 11.7438C35.9761 11.6438 36.2101 11.4308 36.3411 11.1638C36.4751 10.8968 36.5081 10.5788 36.4121 10.2748C36.3141 9.96984 36.1041 9.73184 35.8431 9.59684C35.5821 9.46185 35.2711 9.42685 34.9711 9.52684H34.9691C34.6691 9.62684 34.4371 9.83984 34.3041 10.1058C34.1701 10.3738 34.1371 10.6898 34.2331 10.9958L34.2351 10.9938ZM33.5611 11.7048L30.7941 12.6238C30.5551 12.7038 30.3011 12.5698 30.2231 12.3278C30.1451 12.0848 30.2771 11.8238 30.5141 11.7458L33.2831 10.8268C33.2461 10.4268 33.3261 10.0328 33.4981 9.68784C33.7371 9.21184 34.1521 8.82685 34.6911 8.64885C35.2301 8.46885 35.7881 8.53184 36.2561 8.77284C36.7231 9.01584 37.1011 9.43985 37.2751 9.98985C37.4491 10.5398 37.3901 11.1088 37.1531 11.5848C36.9141 12.0608 36.4991 12.4438 35.9601 12.6238C35.4211 12.8018 34.8631 12.7408 34.3951 12.4998C34.0561 12.3238 33.7651 12.0518 33.5631 11.7068L33.5611 11.7048ZM30.2361 6.55185L28.5411 8.93184C28.3951 9.13784 28.1091 9.18584 27.9081 9.03384C27.7061 8.88384 27.6591 8.59484 27.8081 8.38784L29.5021 6.00484C29.2431 5.70385 29.0801 5.33884 29.0211 4.95485C28.9381 4.42685 29.0541 3.86584 29.3861 3.40084L29.3881 3.39884C29.7211 2.93284 30.2061 2.64885 30.7251 2.56585C31.2441 2.48185 31.7941 2.59884 32.2501 2.93784L32.2511 2.93984C32.7071 3.27884 32.9871 3.77485 33.0681 4.30285C33.1521 4.83084 33.0351 5.39284 32.7031 5.85684C32.3701 6.32384 31.8831 6.60884 31.3641 6.69284C30.9881 6.75385 30.5951 6.70884 30.2341 6.54984L30.2361 6.55185ZM32.1741 4.44785C32.1291 4.16085 31.9791 3.88985 31.7331 3.69884C31.7221 3.69184 31.7091 3.68284 31.6991 3.67484C31.4461 3.49384 31.1471 3.43285 30.8641 3.47684C30.5821 3.52285 30.3161 3.67485 30.1301 3.92685C30.1231 3.93785 30.1141 3.95084 30.1061 3.95984C29.9301 4.21984 29.8671 4.52285 29.9121 4.81084C29.9581 5.10484 30.1141 5.38284 30.3691 5.57184C30.6251 5.76284 30.9321 5.82785 31.2211 5.78085C31.5101 5.73484 31.7811 5.57584 31.9681 5.31384C32.1551 5.05284 32.2201 4.73984 32.1741 4.44584V4.44785ZM14.9561 10.8268L17.6801 11.7288C17.9191 11.8068 18.0511 12.0658 17.9731 12.3088C17.8971 12.5518 17.6421 12.6848 17.4031 12.6068L14.6741 11.7048C14.4721 12.0518 14.1811 12.3218 13.8421 12.4998C13.3761 12.7428 12.8181 12.8038 12.2771 12.6238C11.7401 12.4438 11.3211 12.0608 11.0841 11.5848C10.8511 11.1178 10.7901 10.5618 10.9531 10.0228C10.9581 10.0008 10.9661 9.97884 10.9731 9.95784C11.1531 9.42484 11.5231 9.01184 11.9811 8.77485C12.4381 8.53585 12.9831 8.47484 13.5131 8.63984C13.5351 8.64484 13.5551 8.65184 13.5771 8.65984C14.1001 8.84284 14.5051 9.22084 14.7391 9.68784C14.9111 10.0328 14.9911 10.4268 14.9541 10.8268H14.9561ZM12.3941 9.59884C12.1331 9.73384 11.9231 9.97084 11.8271 10.2748V10.2768C11.7291 10.5828 11.7641 10.8988 11.8951 11.1658C12.0291 11.4328 12.2601 11.6458 12.5601 11.7458C12.8611 11.8438 13.1721 11.8108 13.4331 11.6758C13.6941 11.5408 13.9031 11.3028 14.0001 10.9978C14.0981 10.6918 14.0651 10.3738 13.9311 10.1078C13.8001 9.84185 13.5661 9.62884 13.2661 9.52884H13.2641C12.9641 9.42884 12.6531 9.46384 12.3921 9.59884H12.3941ZM18.7361 6.00884L20.3981 8.33784C20.5441 8.54485 20.5001 8.83384 20.2981 8.98384C20.0961 9.13385 19.8131 9.08784 19.6641 8.88184L18.0031 6.55384C17.6421 6.71284 17.2491 6.75784 16.8731 6.69584C16.3541 6.61284 15.8671 6.32784 15.5341 5.86084C15.2001 5.39384 15.0871 4.83484 15.1691 4.30684C15.2481 3.78684 15.5211 3.29684 15.9671 2.95784C15.9801 2.94684 15.9971 2.93384 16.0121 2.92484C16.4651 2.59884 17.0041 2.48784 17.5141 2.56884C18.0251 2.65084 18.5051 2.92884 18.8361 3.38184C18.8481 3.39684 18.8601 3.41185 18.8701 3.42884C19.1901 3.88984 19.2991 4.44184 19.2201 4.96085C19.1611 5.34385 18.9981 5.70885 18.7381 6.01085L18.7361 6.00884ZM17.3731 3.47884C17.0841 3.43284 16.7781 3.49884 16.5231 3.68784C16.2671 3.87684 16.1111 4.15485 16.0631 4.44984C16.0171 4.74384 16.0841 5.05684 16.2691 5.31784C16.4561 5.57985 16.7261 5.73684 17.0151 5.78484C17.3041 5.83184 17.6101 5.76685 17.8661 5.57584C18.1211 5.38684 18.2771 5.10884 18.3231 4.81384C18.3691 4.52184 18.3051 4.20784 18.1191 3.94785C17.9331 3.68684 17.6621 3.52684 17.3711 3.48084L17.3731 3.47884ZM24.5711 4.37684L24.5731 7.35884C24.5731 7.61285 24.3691 7.82084 24.1211 7.82084C23.8711 7.82084 23.6671 7.61485 23.6671 7.35884L23.6661 4.37684C23.2801 4.28884 22.9381 4.08984 22.6671 3.81585C22.2971 3.43584 22.0671 2.91385 22.0671 2.33585C22.0671 1.75785 22.2971 1.23584 22.6671 0.857845C23.0391 0.479847 23.5511 0.246845 24.1181 0.246845C24.6831 0.246845 25.1971 0.479847 25.5681 0.857845C25.9401 1.23685 26.1681 1.75985 26.1681 2.33585C26.1681 2.91385 25.9381 3.43584 25.5681 3.81585C25.2991 4.08984 24.9561 4.28884 24.5711 4.37684ZM24.9271 1.51384C24.7201 1.30184 24.4341 1.17284 24.1191 1.17284C23.8051 1.17284 23.5171 1.30184 23.3121 1.51384C23.1061 1.72484 22.9771 2.01585 22.9771 2.33585C22.9771 2.65784 23.1041 2.94884 23.3121 3.15984C23.5171 3.37185 23.8051 3.50084 24.1191 3.50084C24.4341 3.50084 24.7201 3.37185 24.9271 3.15984C25.1331 2.94884 25.2621 2.65784 25.2621 2.33585C25.2621 2.01585 25.1351 1.72484 24.9271 1.51384ZM27.8871 11.0618C26.9221 10.0788 25.5901 9.47084 24.1191 9.47084C22.6471 9.47084 21.3151 10.0808 20.3501 11.0618C19.3871 12.0458 18.7881 13.4038 18.7881 14.9038C18.7881 16.4048 19.3851 17.7628 20.3501 18.7458C21.3151 19.7298 22.6471 20.3368 24.1191 20.3368C25.5901 20.3368 26.9241 19.7278 27.8871 18.7458C28.8521 17.7628 29.4491 16.4048 29.4491 14.9038C29.4491 13.4038 28.8521 12.0458 27.8871 11.0618Z" fill="black"/>
</g>
</g>
</g>
</svg>
